grf
version=1
nRows=15
nColumns=37
inDegrees=no
endheader
time	ground_force_1_vx	ground_force_1_vy	ground_force_1_vz	ground_force_1_px	ground_force_1_py	ground_force_1_pz	ground_moment_1_mx	ground_moment_1_my	ground_moment_1_mz	ground_force_2_vx	ground_force_2_vy	ground_force_2_vz	ground_force_2_px	ground_force_2_py	ground_force_2_pz	ground_moment_2_mx	ground_moment_2_my	ground_moment_2_mz	ground_force_3_vx	ground_force_3_vy	ground_force_3_vz	ground_force_3_px	ground_force_3_py	ground_force_3_pz	ground_moment_3_mx	ground_moment_3_my	ground_moment_3_mz	ground_force_4_vx	ground_force_4_vy	ground_force_4_vz	ground_force_4_px	ground_force_4_py	ground_force_4_pz	ground_moment_4_mx	ground_moment_4_my	ground_moment_4_mz
      5.35000000	      0.00000000	     -0.00000000	      0.00000000	      0.00000000	      0.00000000	      0.00000000	      0.00000000	      0.00000000	      0.00000000	      4.37036562	     26.70105743	   -307.31808472	   -396.01670513	  -1083.88620970	      0.00000000	      0.00000000	      0.00000000	    831.83512075	      4.18250039	    -37.86393011	   -417.98602295	   -395.50018915	   -720.29218606	      0.00000000	      0.00000000	     -0.00000000	  -1689.49354805	      0.00000000	     -0.00000000	      0.00000000	      0.00000000	      0.00000000	      0.00000000	      0.00000000	      0.00000000	      0.00000000
      5.36000000	      0.00000000	     -0.00000000	      0.00000000	      0.00000000	      0.00000000	      0.00000000	      0.00000000	      0.00000000	      0.00000000	      4.48580551	     27.08276939	   -309.78979492	   -397.42258761	  -1084.17274897	      0.00000000	      0.00000000	      0.00000000	    610.30901798	      3.26933008	    -37.52483015	   -414.89016724	   -395.69521081	   -720.98803212	      0.00000000	      0.00000000	     -0.00000000	  -1763.33897236	      0.00000000	     -0.00000000	      0.00000000	      0.00000000	      0.00000000	      0.00000000	      0.00000000	      0.00000000	      0.00000000
      5.37000000	      0.00000000	     -0.00000000	      0.00000000	      0.00000000	      0.00000000	      0.00000000	      0.00000000	      0.00000000	      0.00000000	      4.88110018	     26.67547035	   -310.39480591	   -397.67038714	  -1083.43501609	      0.00000000	      0.00000000	      0.00000000	    623.38082731	      2.99105961	    -37.39784648	   -414.09381104	   -394.93363733	   -720.76168676	      0.00000000	      0.00000000	     -0.00000000	  -1774.09224680	      0.00000000	     -0.00000000	      0.00000000	      0.00000000	      0.00000000	      0.00000000	      0.00000000	      0.00000000	      0.00000000
      5.38000000	      0.00000000	     -0.00000000	      0.00000000	      0.00000000	      0.00000000	      0.00000000	      0.00000000	      0.00000000	      0.00000000	      5.13538408	     26.62482071	   -310.95001221	   -397.82502078	  -1083.14695938	      0.00000000	      0.00000000	      0.00000000	    562.65998598	      3.09219440	    -37.27175167	   -413.14608765	   -395.37995083	   -720.61083815	      0.00000000	      0.00000000	     -0.00000000	  -1716.55139606	      0.00000000	     -0.00000000	      0.00000000	      0.00000000	      0.00000000	      0.00000000	      0.00000000	      0.00000000	      0.00000000
      5.39000000	      0.00000000	     -0.00000000	      0.00000000	      0.00000000	      0.00000000	      0.00000000	      0.00000000	      0.00000000	      0.00000000	      5.23849058	     26.49761391	   -310.13745117	   -396.89833531	  -1084.05467665	      0.00000000	      0.00000000	      0.00000000	    577.80776861	      3.07977615	    -37.03177670	   -410.90206909	   -395.70203940	   -721.61618597	      0.00000000	      0.00000000	     -0.00000000	  -1739.11221720	      0.00000000	     -0.00000000	      0.00000000	      0.00000000	      0.00000000	      0.00000000	      0.00000000	      0.00000000	      0.00000000
      5.40000000	      0.00000000	     -0.00000000	      0.00000000	      0.00000000	      0.00000000	      0.00000000	      0.00000000	      0.00000000	      0.00000000	      4.70350266	     26.21665382	   -310.74957275	   -396.99609826	  -1084.75659794	      0.00000000	      0.00000000	      0.00000000	    544.28953237	      3.11728204	    -36.69240979	   -409.55487061	   -396.03294347	   -721.88577891	      0.00000000	      0.00000000	     -0.00000000	  -1598.51627523	      0.00000000	     -0.00000000	      0.00000000	      0.00000000	      0.00000000	      0.00000000	      0.00000000	      0.00000000	      0.00000000
      5.41000000	      0.00000000	     -0.00000000	      0.00000000	      0.00000000	      0.00000000	      0.00000000	      0.00000000	      0.00000000	      0.00000000	      4.22117662	     26.62368774	   -312.36355591	   -397.74171985	  -1084.97057094	      0.00000000	     -0.00000000	      0.00000000	    503.95052711	      3.19358508	    -36.36269025	   -407.86300659	   -395.44357687	   -721.83282007	      0.00000000	      0.00000000	     -0.00000000	  -1654.92447778	      0.00000000	     -0.00000000	      0.00000000	      0.00000000	      0.00000000	      0.00000000	      0.00000000	      0.00000000	      0.00000000
      5.42000000	      0.00000000	     -0.00000000	      0.00000000	      0.00000000	      0.00000000	      0.00000000	      0.00000000	      0.00000000	      0.00000000	      3.89873791	     27.61838150	   -314.48287964	   -398.57502653	  -1082.87801659	      0.00000000	     -0.00000000	     -0.00000000	    748.15547881	      2.85088246	    -36.22398401	   -405.01586914	   -395.40864074	   -722.43796640	      0.00000000	      0.00000000	     -0.00000000	  -1502.10880888	      0.00000000	     -0.00000000	      0.00000000	      0.00000000	      0.00000000	      0.00000000	      0.00000000	      0.00000000	      0.00000000
      5.43000000	      0.00000000	     -0.00000000	      0.00000000	      0.00000000	      0.00000000	      0.00000000	      0.00000000	      0.00000000	      0.00000000	      3.50300670	     27.65419960	   -321.75866699	   -398.99063792	  -1084.34670791	      0.00000000	      0.00000000	      0.00000000	    693.97256900	      3.20557117	    -35.55544690	   -401.97732544	   -394.73496143	   -721.61207411	      0.00000000	      0.00000000	     -0.00000000	  -1626.51157370	      0.00000000	     -0.00000000	      0.00000000	      0.00000000	      0.00000000	      0.00000000	      0.00000000	      0.00000000	      0.00000000
      5.44000000	      0.00000000	     -0.00000000	      0.00000000	      0.00000000	      0.00000000	      0.00000000	      0.00000000	      0.00000000	      0.00000000	      2.73857045	     28.59910202	   -329.51690674	   -398.66419254	  -1084.87208169	      0.00000000	      0.00000000	      0.00000000	    636.21853350	      2.81216918	    -34.30422617	   -398.18408203	   -393.67352430	   -720.25588251	      0.00000000	      0.00000000	     -0.00000000	  -1394.42328933	      0.00000000	     -0.00000000	      0.00000000	      0.00000000	      0.00000000	      0.00000000	      0.00000000	      0.00000000	      0.00000000
      5.45000000	      0.00000000	     -0.00000000	      0.00000000	      0.00000000	      0.00000000	      0.00000000	      0.00000000	      0.00000000	      0.00000000	      2.85085082	     29.19601822	   -334.56890869	   -398.87885037	  -1081.84288700	      0.00000000	      0.00000000	      0.00000000	    740.33147979	      2.41023531	    -33.83887884	   -391.60971069	   -392.92550166	   -721.33828619	      0.00000000	      0.00000000	     -0.00000000	  -1546.97756205	      0.00000000	     -0.00000000	      0.00000000	      0.00000000	      0.00000000	      0.00000000	      0.00000000	      0.00000000	      0.00000000
      5.46000000	      0.00000000	     -0.00000000	      0.00000000	      0.00000000	      0.00000000	      0.00000000	      0.00000000	      0.00000000	      0.00000000	      3.04463625	     29.84721565	   -340.66479492	   -398.41336484	  -1083.00610307	      0.00000000	      0.00000000	      0.00000000	    655.47340742	      1.38079864	    -33.35871518	   -385.52413940	   -392.10993361	   -721.01461596	      0.00000000	      0.00000000	     -0.00000000	  -1327.59537077	      0.00000000	     -0.00000000	      0.00000000	      0.00000000	      0.00000000	      0.00000000	      0.00000000	      0.00000000	      0.00000000
      5.47000000	      0.00000000	     -0.00000000	      0.00000000	      0.00000000	      0.00000000	      0.00000000	      0.00000000	      0.00000000	      0.00000000	      3.64628386	     30.49393463	   -344.81283569	   -399.00432178	  -1083.71036082	      0.00000000	     -0.00000000	      0.00000000	    654.72480492	      1.28058456	    -32.88274776	   -381.42562866	   -391.37298245	   -719.65142868	      0.00000000	      0.00000000	     -0.00000000	  -1336.36834847	      0.00000000	     -0.00000000	      0.00000000	      0.00000000	      0.00000000	      0.00000000	      0.00000000	      0.00000000	      0.00000000
      5.48000000	      0.00000000	     -0.00000000	      0.00000000	      0.00000000	      0.00000000	      0.00000000	      0.00000000	      0.00000000	      0.00000000	      3.98668218	     31.01737976	   -348.05978394	   -397.79447609	  -1083.90925535	      0.00000000	     -0.00000000	      0.00000000	    591.45218579	      0.97581582	    -32.21492394	   -374.63970947	   -390.97152062	   -721.70451806	      0.00000000	      0.00000000	     -0.00000000	  -1288.04347139	      0.00000000	     -0.00000000	      0.00000000	      0.00000000	      0.00000000	      0.00000000	      0.00000000	      0.00000000	      0.00000000
      5.49000000	      0.00000000	     -0.00000000	      0.00000000	      0.00000000	      0.00000000	      0.00000000	      0.00000000	      0.00000000	      0.00000000	      4.33224392	     31.46303177	   -349.56048584	   -398.34456809	  -1083.65468163	      0.00000000	      0.00000000	      0.00000000	    698.54205220	      1.14208500	    -32.25381861	   -371.86743164	   -389.97462791	   -720.51301859	      0.00000000	     -0.00000000	     -0.00000000	  -1321.80548731	      0.00000000	     -0.00000000	      0.00000000	      0.00000000	      0.00000000	      0.00000000	      0.00000000	      0.00000000	      0.00000000
